<?xml version="1.0" standalone="no"?>
<!DOCTYPE svg PUBLIC "-//W3C//DTD SVG 1.1//EN" "http://www.w3.org/Graphics/SVG/1.1/DTD/svg11.dtd" >
<svg xmlns="http://www.w3.org/2000/svg" xmlns:xlink="http://www.w3.org/1999/xlink" version="1.1">
<metadata>
Created by FontForge 20170812 at Tue Apr  2 17:52:39 2013
 By www-data
Copyright (c) 2000, 2001, 2006 Nick Curtis. All Rights Reserved. Distributed under the 1001Fonts Free For Commercial Use License (FFC) http://www.1001fonts.com/licenses/ffc.html - PayPal donations in any amount may be made at nicksfonts.com.
</metadata>
<defs>
<font id="SwishButtonsNF" horiz-adv-x="1048" >
  <font-face 
    font-family="Swish Buttons NF"
    font-weight="400"
    font-stretch="normal"
    units-per-em="1000"
    panose-1="2 1 6 3 2 2 2 2 2 4"
    ascent="800"
    descent="-200"
    x-height="800"
    cap-height="800"
    bbox="0 -200 2142 800"
    underline-thickness="20"
    underline-position="-153"
    unicode-range="U+0020-20AC"
  />
<missing-glyph horiz-adv-x="280" 
 />
    <glyph glyph-name=".notdef" horiz-adv-x="280" 
 />
    <glyph glyph-name=".null" horiz-adv-x="0" 
 />
    <glyph glyph-name="nonmarkingreturn" horiz-adv-x="333" 
 />
    <glyph glyph-name="space" unicode=" " horiz-adv-x="344" 
d="M344 -200h-344v1000h344v-1000z" />
    <glyph glyph-name="exclam" unicode="!" horiz-adv-x="256" 
d="M256 -200h-256v1000h256v-1000zM227 669h-198l24 -449h150zM203 -69v166h-150v-166h150z" />
    <glyph glyph-name="quotedbl" unicode="&#x22;" horiz-adv-x="363" 
d="M363 -200h-363v1000h363v-1000zM342 514v155h-150v-166h83l-67 -135h63zM172 514v155h-150v-166h83l-67 -135h62z" />
    <glyph glyph-name="numbersign" unicode="#" horiz-adv-x="648" 
d="M648 -200h-648v1000h648v-1000zM636 436h-139l57 233h-91l-56 -233h-90l56 233h-90l-57 -233h-139l-22 -91h139l-22 -90h-139l-22 -91h139l-57 -233h91l56 233h91l-57 -233h91l56 233h139l22 91h-139l22 90h139zM385 345l-22 -90h-91l22 90h91z" />
    <glyph glyph-name="dollar" unicode="$" horiz-adv-x="718" 
d="M718 -200h-718v1000h718v-1000zM692 76v153q0 58 -42.5 101.5t-101.5 43.5h-373v125h367v-68h150v73q0 60 -42.5 102.5t-101.5 42.5h-131v83h-127v-83h-120q-60 0 -102.5 -42.5t-42.5 -102.5v-136q0 -58 43 -101.5t102 -43.5h372v-142h-367v92h-150v-97
q0 -60 42.5 -102.5t102.5 -42.5h120v-98h127v98h131q59 0 101.5 42.5t42.5 102.5z" />
    <glyph glyph-name="percent" unicode="%" horiz-adv-x="667" 
d="M667 -200h-667v1000h667v-1000zM528 669h-68l-324 -753h68zM304 392v209q0 28 -20 48t-48 20h-143q-28 0 -47.5 -20t-19.5 -48v-209q0 -28 19.5 -48t47.5 -20h143q28 0 48 20t20 48zM233 394h-137v205h137v-205zM638 -16v209q0 28 -20 48t-48 20h-143q-28 0 -47.5 -20
t-19.5 -48v-209q0 -28 19.5 -48t47.5 -20h143q28 0 48 20t20 48zM567 -14h-137v205h137v-205z" />
    <glyph glyph-name="ampersand" unicode="&#x26;" horiz-adv-x="924" 
d="M924 -200h-924v1000h924v-1000zM893 -69l-222 207l155 167h-205l-60 -64l-247 231q-3 2 -3 27v20h156v-76h151v102q0 51 -36.5 87.5t-87.5 36.5h-210q-51 0 -87 -36.5t-36 -87.5v-36q0 -83 32 -126q-100 -73 -110 -80q-52 -37 -52 -110v-117q0 -60 43 -102.5t102 -42.5
h240q62 0 104 45l49 53l104 -98h220zM459 131l-46 -50h-231v108l121 88z" />
    <glyph glyph-name="quotesingle" unicode="'" horiz-adv-x="200" 
d="M200 -200h-200v1000h200v-1000zM175 514v155h-150v-166h83l-67 -135h63z" />
    <glyph glyph-name="parenleft" unicode="(" horiz-adv-x="500" 
d="M500 -200q-206 0 -353 147t-147 353t147 353t353 147v-1000z" />
    <glyph glyph-name="parenright" unicode=")" horiz-adv-x="500" 
d="M500 300q0 -206 -147 -353t-353 -147v1000q206 0 353 -147t147 -353z" />
    <glyph glyph-name="asterisk" unicode="*" horiz-adv-x="497" 
d="M497 -200h-497v1000h497v-1000zM466 349l-167 -1l-50 159l-51 -158h-167l136 -97l-53 -159l135 99l134 -99l-52 159z" />
    <glyph glyph-name="plus" unicode="+" horiz-adv-x="651" 
d="M651 -200h-651v1000h651v-1000zM611 168v166h-203v202h-167v-202h-202v-166h202v-203h167v203h203z" />
    <glyph glyph-name="comma" unicode="," horiz-adv-x="200" 
d="M200 -200h-200v1000h200v-1000zM175 -57v154h-150v-166h83l-46 -92h63z" />
    <glyph glyph-name="hyphen" unicode="-" horiz-adv-x="334" 
d="M334 -200h-334v1000h334v-1000zM313 168v166h-293v-166h293z" />
    <glyph glyph-name="period" unicode="." horiz-adv-x="200" 
d="M200 -200h-200v1000h200v-1000zM175 -69v166h-150v-166h150z" />
    <glyph glyph-name="slash" unicode="/" horiz-adv-x="412" 
d="M412 -200h-412v1000h412v-1000zM398 669h-61l-324 -753h61z" />
    <glyph glyph-name="zero" unicode="0" horiz-adv-x="784" 
d="M784 -200h-784v1000h784v-1000zM761 76v448q0 60 -42.5 102.5t-102.5 42.5h-448q-59 0 -101.5 -42.5t-42.5 -102.5v-448q0 -60 42.5 -102.5t101.5 -42.5h448q60 0 102.5 42.5t42.5 102.5zM611 81h-437v438h437v-438z" />
    <glyph glyph-name="one" unicode="1" horiz-adv-x="290" 
d="M290 -200h-290v1000h290v-1000zM264 -69v738h-237v-150h87v-588h150z" />
    <glyph glyph-name="two" unicode="2" horiz-adv-x="700" 
d="M700 -200h-700v1000h700v-1000zM676 -69v232h-150v-82h-248l342 255q51 38 51 109v79q0 60 -42.5 102.5t-102.5 42.5h-357q-60 0 -102.5 -42.5t-42.5 -102.5v-133h150v128h347v-70l-487 -363v-155h642z" />
    <glyph glyph-name="three" unicode="3" horiz-adv-x="689" 
d="M689 -200h-689v1000h689v-1000zM666 76v165q0 36 -18 70q18 33 18 69v144q0 60 -42.5 102.5t-102.5 42.5h-353q-59 0 -101.5 -42.5t-42.5 -102.5v-90h150v85h342v-133h-227v-151h227v-154h-342v94h-150v-99q0 -60 42.5 -102.5t101.5 -42.5h353q60 0 102.5 42.5
t42.5 102.5z" />
    <glyph glyph-name="four" unicode="4" horiz-adv-x="742" 
d="M742 -200h-742v1000h742v-1000zM725 91v150h-99v428h-164l-445 -456v-122h459v-160h150v160h99zM476 241h-222l222 227v-227z" />
    <glyph glyph-name="five" unicode="5" horiz-adv-x="706" 
d="M706 -200h-706v1000h706v-1000zM686 183q0 72 -30 124t-82.5 79.5t-112 40t-130.5 12.5q-79 0 -142 -15l9 95h370v150h-506l-42 -444q25 6 74 20t80 22t75 15t82 7q30 0 50 -1t52.5 -6.5t52 -16t34.5 -31.5t15 -51q0 -36 -19 -60t-53.5 -34.5t-63.5 -13.5t-68 -3
q-114 0 -256 45l-45 -143q166 -52 301 -52q53 0 100.5 7t95 25.5t82 47t56 75.5t21.5 106z" />
    <glyph glyph-name="six" unicode="6" horiz-adv-x="683" 
d="M683 -200h-683v1000h683v-1000zM659 67v192q0 33 -15 62q-54 103 -279 103q-81 0 -157 -13q34 58 95.5 89t132.5 31h109l6 150q-31 2 -105 2q-178 -2 -300 -112t-122 -289v-177q0 -67 53.5 -120.5t120.5 -53.5h325q56 0 96 40t40 96zM509 81h-311q-24 0 -24 24v145
q52 24 191 24q101 0 144 -21v-172z" />
    <glyph glyph-name="seven" unicode="7" horiz-adv-x="797" 
d="M797 -200h-797v1000h797v-1000zM764 669h-731v-266h150v116h329l-322 -588h170z" />
    <glyph glyph-name="eight" unicode="8" horiz-adv-x="705" 
d="M705 -200h-705v1000h705v-1000zM672 76v165q0 45 -26 82q12 27 12 57v144q0 60 -42.5 102.5t-102.5 42.5h-321q-60 0 -102.5 -42.5t-42.5 -102.5v-144q0 -30 12 -57q-26 -35 -26 -82v-165q0 -60 42.5 -102.5t101.5 -42.5h350q60 0 102.5 42.5t42.5 102.5zM508 386h-311
v133h311v-133zM522 81h-339v154h339v-154z" />
    <glyph glyph-name="nine" unicode="9" horiz-adv-x="705" 
d="M705 -200h-705v1000h705v-1000zM670 334v177q0 67 -53.5 120.5t-120.5 53.5h-325q-56 0 -96 -40.5t-40 -96.5v-191q0 -33 15 -62q54 -104 279 -104q75 0 157 14q-35 -60 -97 -92t-134 -32h-112v-150h105q113 0 208.5 49t154.5 142.5t59 211.5zM520 511v-146
q-54 -23 -191 -23q-101 0 -144 21v171h311q10 0 17 -7t7 -16z" />
    <glyph glyph-name="colon" unicode=":" horiz-adv-x="200" 
d="M200 -200h-200v1000h200v-1000zM175 168v166h-150v-166h150zM175 -69v166h-150v-166h150z" />
    <glyph glyph-name="semicolon" unicode=";" horiz-adv-x="200" 
d="M200 -200h-200v1000h200v-1000zM175 168v166h-150v-166h150zM175 -57v154h-150v-166h83l-46 -92h63z" />
    <glyph glyph-name="less" unicode="&#x3c;" horiz-adv-x="526" 
d="M526 -200h-526v1000h526v-1000zM485 -29v658l-443 -329z" />
    <glyph glyph-name="equal" unicode="=" horiz-adv-x="344" 
d="M344 -200h-344v1000h344v-1000z" />
    <glyph glyph-name="greater" unicode="&#x3e;" horiz-adv-x="526" 
d="M0 -200v1000h526v-1000h-526zM41 -29l443 329l-443 329v-658z" />
    <glyph glyph-name="question" unicode="?" horiz-adv-x="589" 
d="M589 -200h-589v1000h589v-1000zM567 384v140q0 60 -42.5 102.5t-102.5 42.5h-255q-59 0 -101.5 -42.5t-42.5 -102.5v-91h150v86h243v-50l-207 -123v-170h151v85zM358 -69v166h-150v-166h150z" />
    <glyph glyph-name="at" unicode="@" horiz-adv-x="798" 
d="M798 -200h-798v1000h798v-1000zM775 -84v112h-620q-8 0 -14 6t-6 14v489q0 8 6 13.5t14 5.5h488q18 0 18 -19v-340h-64v308h-112v-24h-195q-37 0 -63.5 -26.5t-26.5 -63.5v-217q0 -37 26.5 -63.5t63.5 -26.5q115 0 203 53q11 -24 33 -38.5t49 -14.5h109q37 0 63.5 26.5
t26.5 63.5v363q0 54 -38.5 93t-92.5 39h-488q-55 0 -93.5 -39t-38.5 -93v-489q0 -55 38.5 -93.5t93.5 -38.5h620zM485 316q0 -47 -42 -77q-50 -35 -130 -41v171h172v-53z" />
    <glyph glyph-name="A" unicode="A" horiz-adv-x="939" 
d="M939 -200h-939v1000h939v-1000zM898 -69l-355 738h-149l-355 -738h167l81 168h364l80 -168h167zM578 249h-219l110 229z" />
    <glyph glyph-name="B" unicode="B" horiz-adv-x="733" 
d="M733 -200h-733v1000h733v-1000zM690 76v111q0 73 -40 124q40 50 40 123v90q0 60 -42.5 102.5t-102.5 42.5h-502v-738h502q60 0 102.5 42.5t42.5 102.5zM540 434q0 -48 -60 -48h-287v133h347v-85zM540 81h-347v154h287q60 0 60 -48v-106z" />
    <glyph glyph-name="C" unicode="C" horiz-adv-x="714" 
d="M714 -200h-714v1000h714v-1000zM682 76v107h-150v-102h-350v438h350v-102h150v107q0 60 -42.5 102.5t-101.5 42.5h-362q-60 0 -102.5 -42.5t-42.5 -102.5v-448q0 -60 42.5 -102.5t102.5 -42.5h362q59 0 101.5 42.5t42.5 102.5z" />
    <glyph glyph-name="D" unicode="D" horiz-adv-x="788" 
d="M788 -200h-788v1000h788v-1000zM760 300q0 149 -94 258.5t-241 109.5h-392v-737h392q98 0 176 53t118.5 136.5t40.5 179.5zM610 300q0 -87 -50.5 -153t-134.5 -66h-242v438h242q85 0 135 -66t50 -153z" />
    <glyph glyph-name="E" unicode="E" horiz-adv-x="668" 
d="M668 -200h-668v1000h668v-1000zM636 -69v150h-452v160h265v151h-265v127h447v150h-597v-738h602z" />
    <glyph glyph-name="F" unicode="F" horiz-adv-x="668" 
d="M668 -200h-668v1000h668v-1000zM635 519v150h-596v-738h150v310h265v151h-265v127h446z" />
    <glyph glyph-name="G" unicode="G" horiz-adv-x="708" 
d="M708 -200h-708v1000h708v-1000zM680 76v267h-343v-150h193v-112h-351v438h351v-102h150v107q0 60 -42.5 102.5t-102.5 42.5h-361q-60 0 -102.5 -42.5t-42.5 -102.5v-448q0 -60 42.5 -102.5t102.5 -42.5h361q60 0 102.5 42.5t42.5 102.5z" />
    <glyph glyph-name="H" unicode="H" horiz-adv-x="781" 
d="M781 -200h-781v1000h781v-1000zM750 -69v738h-150v-283h-419v283h-150v-738h150v304h419v-304h150z" />
    <glyph glyph-name="I" unicode="I" horiz-adv-x="204" 
d="M204 -200h-204v1000h204v-1000zM177 -69v738h-150v-738h150z" />
    <glyph glyph-name="J" unicode="J" horiz-adv-x="658" 
d="M658 -200h-658v1000h658v-1000zM631 76v593h-151v-588h-303v187h-150v-192q0 -60 42.5 -102.5t102.5 -42.5h314q60 0 102.5 42.5t42.5 102.5z" />
    <glyph glyph-name="K" unicode="K" horiz-adv-x="770" 
d="M770 -200h-770v1000h770v-1000zM758 -64l-489 374l468 356l-2 3h-242l-319 -242v242h-150v-738h150v263l344 -263h236z" />
    <glyph glyph-name="L" unicode="L" horiz-adv-x="624" 
d="M624 -200h-624v1000h624v-1000zM597 -69v150h-420v588h-150v-738h570z" />
    <glyph glyph-name="M" unicode="M" horiz-adv-x="873" 
d="M873 -200h-873v1000h873v-1000zM842 -69v738h-123l-283 -410l-282 410h-124v-738h151v435l213 -310h85l213 310v-435h150z" />
    <glyph glyph-name="N" unicode="N" horiz-adv-x="789" 
d="M789 -200h-789v1000h789v-1000zM759 -69v738h-150v-487l-452 487h-126v-738h150v492l457 -492h121z" />
    <glyph glyph-name="O" unicode="O" horiz-adv-x="800" 
d="M800 -200h-800v1000h800v-1000zM769 76v448q0 60 -42.5 102.5t-102.5 42.5h-448q-59 0 -101.5 -42.5t-42.5 -102.5v-448q0 -60 42.5 -102.5t101.5 -42.5h448q60 0 102.5 42.5t42.5 102.5zM618 81h-436v438h436v-438z" />
    <glyph glyph-name="P" unicode="P" horiz-adv-x="707" 
d="M707 -200h-707v1000h707v-1000zM677 338v186q0 60 -42.5 102.5t-102.5 42.5h-501v-738h150v262h351q60 0 102.5 42.5t42.5 102.5zM527 344h-346v175h346v-175z" />
    <glyph glyph-name="Q" unicode="Q" horiz-adv-x="794" 
d="M794 -200h-794v1000h794v-1000zM765 76v448q0 60 -42.5 102.5t-102.5 42.5h-447q-60 0 -102.5 -42.5t-42.5 -102.5v-448q0 -60 42.5 -102.5t102.5 -42.5h284l44 -47h207l-49 52q46 13 76 51.5t30 88.5zM615 81h-94l-44 47h-207l45 -47h-137v438h437v-438z" />
    <glyph glyph-name="R" unicode="R" horiz-adv-x="794" 
d="M794 -200h-794v1000h794v-1000zM778 -69l-248 262q60 0 103.5 42.5t43.5 102.5v186q0 60 -42.5 102.5t-102.5 42.5h-501v-738h150v262h142l248 -262h207zM527 344h-346v175h346v-175z" />
    <glyph glyph-name="S" unicode="S" horiz-adv-x="718" 
d="M718 -200h-718v1000h718v-1000zM692 76v165q0 58 -42.5 101.5t-101.5 43.5h-373v133h367v-68h150v73q0 60 -42.5 102.5t-101.5 42.5h-378q-60 0 -102.5 -42.5t-42.5 -102.5v-144q0 -58 43 -101.5t102 -43.5h372v-154h-367v92h-150v-97q0 -60 42.5 -102.5t102.5 -42.5h378
q59 0 101.5 42.5t42.5 102.5z" />
    <glyph glyph-name="T" unicode="T" horiz-adv-x="700" 
d="M700 -200h-700v1000h700v-1000zM673 519v150h-646v-150h248v-588h150v588h248z" />
    <glyph glyph-name="U" unicode="U" horiz-adv-x="767" 
d="M767 -200h-767v1000h767v-1000zM736 76v593h-151v-588h-403v588h-150v-593q0 -60 42.5 -102.5t101.5 -42.5h415q60 0 102.5 42.5t42.5 102.5z" />
    <glyph glyph-name="V" unicode="V" horiz-adv-x="831" 
d="M831 -200h-831v1000h831v-1000zM820 669h-165l-240 -517l-240 517h-165l342 -738h126z" />
    <glyph glyph-name="W" unicode="W" horiz-adv-x="1036" 
d="M1036 -200h-1036v1000h1036v-1000zM1024 669h-157l-146 -452l-146 452h-113l-146 -452l-146 452h-158l239 -738h130l137 426l138 -426h130z" />
    <glyph glyph-name="X" unicode="X" horiz-adv-x="874" 
d="M874 -200h-874v1000h874v-1000zM864 -69l-329 384l303 354h-197l-204 -239l-205 239h-197l303 -354l-329 -384h198l230 269l230 -269h197z" />
    <glyph glyph-name="Y" unicode="Y" horiz-adv-x="835" 
d="M835 -200h-835v1000h835v-1000zM821 669h-193l-211 -259l-210 259h-193l328 -404v-334h150v334z" />
    <glyph glyph-name="Z" unicode="Z" horiz-adv-x="677" 
d="M677 -200h-677v1000h677v-1000zM650 571v98h-610v-150h377l-391 -494v-94h621v150h-385z" />
    <glyph glyph-name="bracketleft" unicode="[" horiz-adv-x="344" 
d="M344 -200h-344v1000h344v-1000z" />
    <glyph glyph-name="backslash" unicode="\" horiz-adv-x="412" 
d="M0 -200v1000h412v-1000h-412zM14 669l324 -753h61l-324 753h-61z" />
    <glyph glyph-name="bracketright" unicode="]" horiz-adv-x="344" 
d="M344 -200h-344v1000h344v-1000z" />
    <glyph glyph-name="underscore" unicode="_" horiz-adv-x="677" 
d="M677 -200h-677v1000h677v-1000zM650 -137v71h-624v-71h624z" />
    <glyph glyph-name="a" unicode="a" 
d="M1024 -200h-1000v1000h1000v-1000z" />
    <glyph glyph-name="b" unicode="b" 
d="M1024 300l-500 -500l-500 500l500 500z" />
    <glyph glyph-name="c" unicode="c" 
d="M747 577l-223 -224l-223 224l223 223zM1024 300l-223 -223l-224 223l224 223zM747 23l-223 -223l-223 223l223 224zM471 300l-224 -223l-223 223l223 223z" />
    <glyph glyph-name="d" unicode="d" 
d="M1024 300q0 -206 -147 -353t-353 -147t-353 147t-147 353t147 353t353 147t353 -147t147 -353z" />
    <glyph glyph-name="e" unicode="e" horiz-adv-x="1202" 
d="M1178 -200h-1154l577 1000z" />
    <glyph glyph-name="f" unicode="f" horiz-adv-x="1202" 
d="M1178 800l-577 -1000l-577 1000h1154z" />
    <glyph glyph-name="g" unicode="g" horiz-adv-x="1099" 
d="M1075 418l-325 -236l124 -382l-325 237l-325 -237l125 382l-325 236h401l124 382l124 -382h402z" />
    <glyph glyph-name="h" unicode="h" horiz-adv-x="914" 
d="M890 50l-336 82l-97 -332l-97 332l-336 -82l240 250l-240 250l336 -82l97 332l97 -332l336 82l-239 -250z" />
    <glyph glyph-name="i" unicode="i" 
d="M1024 93l-324 31l31 -324l-207 251l-207 -251l31 324l-324 -31l251 207l-251 207l324 -31l-31 324l207 -251l207 251l-31 -324l324 31l-251 -207z" />
    <glyph glyph-name="j" unicode="j" 
d="M1024 300l-245 -68l178 -182l-246 63l63 -246l-182 178l-68 -245l-68 245l-182 -178l63 246l-246 -63l178 182l-245 68l245 68l-178 182l246 -63l-63 246l182 -178l68 245l68 -245l182 178l-63 -246l246 63l-178 -182z" />
    <glyph glyph-name="k" unicode="k" 
d="M1024 234l-146 -29l112 -98l-148 10l82 -124l-141 48l48 -141l-124 82l10 -148l-98 112l-29 -146l-66 133l-66 -133l-29 146l-98 -112l10 148l-124 -82l48 141l-141 -48l82 124l-148 -10l112 98l-146 29l133 66l-133 66l146 29l-112 98l148 -10l-82 124l141 -48l-48 141
l124 -82l-10 148l98 -112l29 146l66 -133l66 133l29 -146l98 112l-10 -148l124 82l-48 -141l141 48l-82 -124l148 10l-112 -98l146 -29l-133 -66z" />
    <glyph glyph-name="l" unicode="l" 
d="M1024 267h-247l239 -64l-18 -65l-239 65l215 -124l-34 -58l-214 124l175 -175l-47 -47l-175 175l124 -214l-58 -34l-123 215l64 -239l-64 -18l-64 239v-247h-67v248l-64 -240l-64 17l64 240l-124 -215l-58 33l124 215l-175 -175l-47 47l175 175l-214 -124l-34 58l215 124
l-239 -65l-18 65l240 64h-248v66h248l-240 64l18 64l239 -64l-215 124l34 58l214 -124l-175 175l47 47l175 -175l-124 214l58 34l124 -215l-64 239l64 18l64 -240v248h67v-247l63 238l65 -17l-65 -239l124 214l58 -33l-124 -214l175 175l47 -47l-175 -175l214 124l34 -58
l-215 -124l239 64l18 -64l-240 -64h248v-66z" />
    <glyph glyph-name="m" unicode="m" 
d="M907 579q22 0 40 -17t18 -40q0 -22 -17 -39.5t-41 -17.5q-22 0 -39 16.5t-17 40.5q0 23 16 40t40 17zM803 684q0 -23 -17.5 -40t-40.5 -17q-25 0 -40.5 17.5t-15.5 40.5q0 25 17 40.5t40 15.5q25 0 41 -17.5t16 -39.5zM581 743q0 -23 -16.5 -40t-40.5 -17q-23 0 -40 17
t-17 40t17 40t40 17q24 0 40.5 -17t16.5 -40zM1024 300q0 -23 -17 -40t-40 -17t-40 17t-17 40q0 24 17 40.5t40 16.5t40 -16.5t17 -40.5zM302 741q23 0 40 -16.5t17 -40.5q0 -22 -16.5 -39.5t-40.5 -17.5q-23 0 -40 16t-17 40q0 23 16.5 40.5t40.5 17.5zM965 78
q0 -22 -17.5 -39t-40.5 -17q-25 0 -40.5 17t-15.5 40q0 25 17 41t40 16q24 0 40.5 -18t16.5 -40zM896 300l-48 -57h-111l96 -55l13 -74l-70 -26l-95 56l55 -96l-26 -70l-73 13l-56 95v-110l-57 -48l-57 48v111l-55 -96l-74 -12l-26 69l56 96l-96 -55l-70 26l13 73l95 55
h-110l-48 57l48 58h110l-96 55l-12 73l70 26l96 -55l-56 95l26 70l73 -12l56 -96v110l57 48l57 -48v-110l56 96l73 12l26 -69l-56 -96l96 55l70 -26l-12 -73l-96 -55h110zM197 522q0 -23 -16.5 -40t-40.5 -17q-25 0 -41 17t-16 40t17.5 40t39.5 17q25 0 41 -17.5t16 -39.5z
M745 -27q22 0 40 -16.5t18 -39.5t-16.5 -40.5t-40.5 -17.5q-23 0 -40 16t-17 41q0 22 16 39.5t40 17.5zM581 -143q0 -23 -16.5 -40t-40.5 -17q-23 0 -40 17t-17 40t17 40t40 17q24 0 40.5 -17t16.5 -40zM138 300q0 -23 -17 -40t-40 -17t-40 17t-17 40q0 24 17 40.5t40 16.5
t40 -16.5t17 -40.5zM360 -84q0 -22 -17.5 -39t-40.5 -17q-25 0 -40.5 17t-15.5 40q0 25 17 41t40 16q24 0 40.5 -18t16.5 -40zM140 136q23 0 40 -16.5t17 -40.5q0 -23 -16.5 -40t-40.5 -17q-22 0 -39.5 16t-17.5 40q0 22 16.5 40t40.5 18z" />
    <glyph glyph-name="n" unicode="n" 
d="M995 530q0 -15 -14 -15t-14 15q0 14 14 14t14 -14zM699 785q0 -5 -4.5 -9.5t-10.5 -4.5q-5 0 -9.5 4.5t-4.5 9.5q0 6 4 10.5t10 4.5q15 0 15 -15zM757 737q0 -8 -6.5 -14.5t-15.5 -6.5t-15 6t-6 15t6.5 15.5t14.5 6.5t15 -7t7 -15zM1004 460q0 -9 -6.5 -15.5t-14.5 -6.5
q-9 0 -15.5 6.5t-6.5 15.5t6.5 15t15.5 6q8 0 14.5 -6t6.5 -15zM807 654q0 -12 -9.5 -22t-22.5 -10t-22.5 9.5t-9.5 22.5q0 14 9.5 23t22.5 9t22.5 -9.5t9.5 -22.5zM984 373q0 -13 -9 -22.5t-23 -9.5q-13 0 -22.5 9.5t-9.5 22.5t9.5 22.5t22.5 9.5q14 0 23 -9.5t9 -22.5z
M483 728q0 -14 -9.5 -23t-22.5 -9t-22.5 9t-9.5 23t9.5 23t22.5 9t22.5 -9t9.5 -23zM1024 138q0 -5 -4.5 -9.5t-10.5 -4.5q-5 0 -9.5 4.5t-4.5 9.5t4.5 10t9.5 5q6 0 10.5 -4.5t4.5 -10.5zM386 759q0 -9 -6.5 -15.5t-15.5 -6.5t-15 6.5t-6 15.5q0 8 6 14.5t15 6.5t15.5 -6.5
t6.5 -14.5zM309 757q0 -14 -15 -14q-14 0 -14 14t14 14q15 0 15 -14zM983 88q0 -8 -6.5 -14.5t-15.5 -6.5t-15 6t-6 15t6.5 15.5t14.5 6.5t15 -7t7 -15zM910 48q0 -12 -9 -22t-22 -10t-23 10t-10 22q0 13 10 23t23 10q12 0 21.5 -10t9.5 -23zM915 282q-85 -85 -206 -85
q-81 0 -150 42q21 -74 82 -121.5t140 -47.5q15 0 23.5 -9t8.5 -21t-8.5 -21t-23.5 -9q-99 0 -177.5 60t-102.5 153q-25 -47 -25 -105q0 -95 67 -162q11 -11 11 -24q0 -12 -9 -21t-21 -9q-13 0 -23 11q-85 85 -85 205q0 80 38 144q-69 -22 -114.5 -83t-45.5 -136
q0 -15 -9 -23.5t-21 -8.5t-21 8.5t-9 23.5q0 98 60 176.5t153 103.5q-47 25 -105 25q-95 0 -162 -67q-11 -11 -24 -11q-12 0 -20.5 9t-8.5 21q0 13 10 23q85 85 205 85q73 0 136 -33q-25 68 -84.5 111t-133.5 43q-15 0 -23.5 9t-8.5 21t8.5 21t23.5 9q99 0 177 -59.5
t103 -152.5q27 51 27 108q0 95 -68 163q-10 10 -10 23q0 12 8.5 21t21.5 9q12 0 23 -10q85 -85 85 -206q0 -77 -37 -142q71 21 117 82.5t46 138.5q0 15 9 23.5t21 8.5t21 -8.5t9 -23.5q0 -99 -59.5 -177t-152.5 -103q51 -27 108 -27q95 0 163 68q10 10 23 10t22 -8.5
t9 -21.5q0 -12 -11 -23zM202 551q0 -13 -10 -22.5t-23 -9.5t-22 9t-9 23q0 13 9 22.5t22 9.5q14 0 23.5 -10t9.5 -22zM768 -157q0 -6 -4.5 -10.5t-9.5 -4.5q-6 0 -10.5 4.5t-4.5 10.5q0 14 15 14q5 0 9.5 -4t4.5 -10zM108 511q0 -8 -6 -14.5t-15 -6.5t-15.5 6.5t-6.5 14.5
t7 15t15 7t14.5 -6.5t6.5 -15.5zM705 -159q0 -9 -6.5 -15t-14.5 -6q-9 0 -15.5 6t-6.5 15t6.5 15.5t15.5 6.5q8 0 14.5 -6.5t6.5 -15.5zM52 460q0 -14 -14 -14t-14 14q0 15 14 15t14 -15zM629 -128q0 -13 -9.5 -22.5t-22.5 -9.5t-22.5 9t-9.5 23q0 13 9.5 22.5t22.5 9.5
t22.5 -9.5t9.5 -22.5zM128 227q0 -13 -9.5 -22.5t-22.5 -9.5t-22.5 9.5t-9.5 22.5t9 22.5t23 9.5q13 0 22.5 -9.5t9.5 -22.5zM305 -55q0 -13 -9.5 -22t-23.5 -9q-13 0 -22 9t-9 22q0 14 9 23.5t22 9.5t23 -10t10 -23zM87 140q0 -8 -6.5 -14.5t-15.5 -6.5t-15 6.5t-6 14.5
q0 9 6 15.5t15 6.5t15.5 -6.5t6.5 -15.5zM377 -186q0 -14 -15 -14q-6 0 -10 4.5t-4 9.5t4.5 9.5t9.5 4.5q15 0 15 -14zM334 -137q0 -9 -6.5 -15.5t-15.5 -6.5q-8 0 -14.5 6.5t-6.5 15.5t6.5 15t14.5 6q9 0 15.5 -6t6.5 -15zM81 70q0 -5 -4 -9.5t-10 -4.5t-10.5 4.5t-4.5 9.5
q0 6 4.5 10.5t10.5 4.5q14 0 14 -15z" />
    <glyph glyph-name="o" unicode="o" horiz-adv-x="966" 
d="M916 50q-42 -74 -99 -74q-42 0 -91 40t-85 88t-69 88t-45 40q-9 0 -9 -12q0 -17 23 -72t46.5 -123t23.5 -115q0 -110 -128 -110q-119 0 -119 92q0 52 46.5 165.5t46.5 143.5q0 33 -27 33q-18 0 -45 -26.5t-55 -64t-58.5 -75t-65.5 -64t-65 -26.5q-49 0 -91 72
q-26 45 -26 78q0 41 39 66t95 34.5t111.5 16.5t94.5 19.5t39 35.5t-39 35.5t-94.5 19t-111.5 16t-95 34.5t-39 66q0 34 26 79q43 74 99 74q41 0 90.5 -40t85.5 -88t69 -88t45 -40q8 0 8 12q0 17 -23 72t-46 123t-23 115q0 110 128 110q119 0 119 -92q0 -52 -46.5 -165.5
t-46.5 -143.5q0 -34 27 -34q18 0 45 26.5t55 64.5t58.5 75.5t65.5 64t65 26.5q49 0 91 -72q26 -45 26 -78q0 -41 -39 -66t-95 -34.5t-112 -16.5t-95 -19.5t-39 -35.5t39 -35.5t95 -19.5t112 -16.5t95 -34.5t39 -66q0 -33 -26 -78z" />
    <glyph glyph-name="p" unicode="p" 
d="M1012 98q-27 -67 -80 -67q-33 0 -78.5 27t-82 59.5t-73.5 59.5t-56 27q-10 0 -16.5 -6.5t-6.5 -15.5q0 -19 27 -56.5t60 -74t60 -81.5t27 -78q0 -30 -32 -61t-88 -31q-41 0 -64 36.5t-30.5 89t-11.5 104.5t-13.5 88.5t-29.5 36.5t-29.5 -36.5t-13.5 -88.5t-11.5 -104.5
t-31 -89t-64.5 -36.5q-55 0 -87 31t-32 61q0 33 27 78t59.5 81.5t59.5 74t27 56.5q0 9 -6.5 15.5t-15.5 6.5q-19 0 -56.5 -27t-74 -59.5t-81.5 -59.5t-78 -27q-30 0 -61 32t-31 87q0 41 36.5 64.5t89 31t104.5 11.5t88.5 13.5t36.5 29.5t-36.5 29.5t-88.5 13.5t-104.5 11.5
t-89 30.5t-36.5 64q0 56 31 88t61 32q33 0 78 -27t81.5 -60t74 -60t56.5 -27q9 0 15.5 6.5t6.5 16.5q0 19 -27 56t-59.5 73.5t-59.5 82t-27 78.5q0 30 32 61t87 31q41 0 64.5 -36.5t31 -89t11.5 -104.5t13.5 -88.5t29.5 -36.5t29.5 36.5t13.5 88.5t11.5 104.5t30.5 89
t64 36.5q56 0 88 -31t32 -61q0 -33 -27 -78.5t-60 -82t-60 -73.5t-27 -56q0 -10 6.5 -16.5t16.5 -6.5q19 0 56 27t73.5 60t82 60t78.5 27q30 0 61 -32t31 -88q0 -41 -36.5 -64t-89 -30.5t-104.5 -11.5t-88.5 -13.5t-36.5 -29.5t36.5 -29.5t88.5 -13.5t104.5 -11.5t89 -31
t36.5 -64.5q0 -22 -12 -52z" />
    <glyph glyph-name="q" unicode="q" horiz-adv-x="938" 
d="M914 95q0 -36 -26.5 -63t-63.5 -27q-24 0 -45 12l-220 126v-253q0 -37 -26.5 -63.5t-63.5 -26.5t-64 26.5t-27 63.5v253l-219 -126q-21 -12 -45 -12q-36 0 -63 25.5t-27 64.5q0 52 45 78l219 127l-219 126q-45 26 -45 79q0 38 27.5 64t62.5 26q24 0 45 -12l219 -127v254
q0 37 27 63.5t64 26.5t63.5 -26.5t26.5 -63.5v-254l219 127q21 12 45 12q36 0 63.5 -25.5t27.5 -64.5q0 -54 -45 -79l-220 -126l220 -127q45 -26 45 -78z" />
    <glyph glyph-name="r" unicode="r" horiz-adv-x="1049" 
d="M1025 330q-5 -139 -74 -260.5t-187.5 -195.5t-258.5 -74q-137 0 -248.5 71t-172 187.5t-60.5 251.5q0 95 35.5 184t96 156.5t147 108.5t182.5 41q121 0 219 -63t151.5 -165.5t53.5 -221.5q0 -170 -115.5 -298t-283.5 -128q-158 0 -263 115.5t-105 274.5q0 145 97.5 253.5
t240.5 108.5q134 0 223.5 -98.5t89.5 -233.5q0 -119 -80.5 -207.5t-197.5 -88.5q-110 0 -183.5 80.5t-73.5 191.5q0 93 62.5 162.5t154.5 69.5q87 0 144.5 -62.5t57.5 -149.5q0 -68 -45 -118t-112 -50q-63 0 -104.5 45.5t-41.5 108.5q0 41 28 71.5t68 30.5q39 0 64.5 -28.5
t25.5 -67.5h-69q0 26 -21 26q-10 0 -18 -7.5t-8 -20.5q0 -39 22 -63.5t55 -24.5q35 0 60.5 30t25.5 70q0 59 -40.5 99.5t-91.5 40.5q-62 0 -105 -49.5t-43 -114.5q0 -83 56.5 -141.5t131.5 -58.5q88 0 148.5 69.5t60.5 157.5q0 102 -69.5 181.5t-174.5 79.5
q-114 0 -191 -87.5t-77 -202.5q0 -131 84.5 -226.5t213.5 -95.5q140 0 234.5 107t94.5 249q0 155 -100.5 267.5t-253.5 112.5q-109 0 -200 -60t-141 -156.5t-50 -203.5q0 -116 51.5 -216t147 -162t212.5 -62q121 0 224 65t162.5 170t64.5 225h69z" />
    <glyph glyph-name="s" unicode="s" 
d="M1024 300q0 -206 -147 -353t-353 -147t-353 147t-147 353t147 353t353 147t353 -147t147 -353zM975 300q0 122 -60.5 226t-164.5 164.5t-226 60.5t-226 -60.5t-164.5 -164.5t-60.5 -226t60.5 -226t164.5 -164.5t226 -60.5t226 60.5t164.5 164.5t60.5 226zM873 300
q0 -144 -102.5 -246.5t-246.5 -102.5t-246.5 102.5t-102.5 246.5t102.5 246.5t246.5 102.5t246.5 -102.5t102.5 -246.5z" />
    <glyph glyph-name="t" unicode="t" 
d="M1024 300q0 -206 -147 -353t-353 -147t-353 147t-147 353t147 353t353 147t353 -147t147 -353zM975 300q0 122 -60.5 226t-164.5 164.5t-226 60.5t-226 -60.5t-164.5 -164.5t-60.5 -226t60.5 -226t164.5 -164.5t226 -60.5t226 60.5t164.5 164.5t60.5 226zM873 300
q0 -144 -102.5 -246.5t-246.5 -102.5t-246.5 102.5t-102.5 246.5t102.5 246.5t246.5 102.5t246.5 -102.5t102.5 -246.5zM823 300q0 124 -87.5 211.5t-211.5 87.5t-211.5 -87.5t-87.5 -211.5t87.5 -211.5t211.5 -87.5t211.5 87.5t87.5 211.5zM703 300q0 -74 -52.5 -126.5
t-126.5 -52.5t-126.5 52.5t-52.5 126.5t52.5 126.5t126.5 52.5t126.5 -52.5t52.5 -126.5z" />
    <glyph glyph-name="u" unicode="u" horiz-adv-x="403" 
d="M312 689q0 -46 -32.5 -78t-78.5 -32t-78 32t-32 78t32 78.5t78 32.5t78.5 -32.5t32.5 -78.5zM379 154h-82v-354h-191v354h-82v224q0 73 52 125.5t125 52.5t125.5 -52t52.5 -126v-224z" />
    <glyph glyph-name="v" unicode="v" horiz-adv-x="822" 
d="M798 205h-62l13 -32l-24 -24l24 -25l-32 -32v-53l-29 -29h-133v-210h-367v359q-77 47 -120.5 125.5t-43.5 168.5q0 143 101.5 245t244.5 102q113 0 205 -67t126 -175q13 -39 16 -94v-58l81 -175v-26zM682 400q-31 37 -78 37q-49 0 -78 -37q29 -37 78 -37q47 0 78 37z" />
    <glyph glyph-name="w" unicode="w" horiz-adv-x="1898" 
d="M1874 300q-166 -236 -405.5 -368t-519.5 -132t-519.5 132t-405.5 368q167 236 406 368t519 132t519.5 -132t405.5 -368zM1658 300q-198 232 -495 303q115 -99 115 -250q0 -136 -96.5 -232.5t-232.5 -96.5t-232.5 96.5t-96.5 232.5q0 151 115 250q-295 -70 -495 -303
q133 -156 319 -242t390 -86q205 0 390.5 86t318.5 242z" />
    <glyph glyph-name="x" unicode="x" horiz-adv-x="1177" 
d="M1133 -5q20 -34 20 -70q0 -52 -41 -88.5t-101 -36.5h-841q-64 0 -105 32.5t-41 83.5q0 38 25 79l443 743q36 62 99 62q60 0 98 -62zM1035 -64q-206 343 -375 629q-68 114 -70 114l-443 -743q-7 -11 -7 -16t14 -5h857q26 0 26 13q0 5 -2 8zM682 431q0 -20 -12.5 -48
t-27 -54.5t-27 -73t-12.5 -98.5h-29q0 66 -20 121t-39.5 92.5t-19.5 60.5q0 39 27.5 66.5t66.5 27.5q38 0 65.5 -27.5t27.5 -66.5zM674 47q0 -35 -25 -60t-60 -25t-60 25t-25 60t25 59.5t60 24.5t60 -25t25 -59z" />
    <glyph glyph-name="y" unicode="y" horiz-adv-x="666" 
d="M642 -129l-123 -71l-233 405l-162 -161l-100 756l605 -464l-220 -60z" />
    <glyph glyph-name="z" unicode="z" horiz-adv-x="1124" 
d="M1100 -11q0 -56 -49.5 -122.5t-101.5 -66.5l-625 1q-52 7 -74 53l-217 451q-9 19 -9 41q0 38 26.5 66t67.5 28q27 0 50.5 -14t35.5 -39l84 -175v493q0 39 27.5 67t66.5 28t67 -28t28 -67v-449h18v140q0 39 28 66.5t67 27.5t67 -27.5t28 -66.5v-140h18v140q0 39 28 66.5
t67 27.5t66.5 -27.5t27.5 -66.5v-140h19v69q0 39 27.5 66.5t66.5 27.5t67 -27.5t28 -66.5v-336z" />
    <glyph glyph-name="bar" unicode="|" horiz-adv-x="211" 
d="M211 800v-1000h-211v1000h211zM157 -178v956h-103v-956h103z" />
    <glyph glyph-name="asciitilde" unicode="~" horiz-adv-x="677" 
d="M677 -200h-677v1000h677v-1000zM636 310l-92 65q-37 -52 -101 -52q-40 0 -72 23q-61 43 -137 43q-57 0 -108 -25.5t-85 -73.5l91 -65q37 52 102 52q38 0 72 -23q59 -43 135 -43q123 0 195 99z" />
    <glyph glyph-name="nbspace" unicode="&#xa0;" horiz-adv-x="338" 
 />
    <glyph glyph-name="cent" unicode="&#xa2;" horiz-adv-x="674" 
d="M276 1v-71h143v71h79q59 0 101.5 42.5t42.5 102.5v107h-150v-102h-73v298h73v-102h150v107q0 60 -42.5 102.5t-101.5 42.5h-79v71h-143v-71h-80q-60 0 -102.5 -42.5t-42.5 -102.5v-308q0 -60 42.5 -102.5t102.5 -42.5h80zM202 151v298h74v-298h-74zM674 -200h-674v1000
h674v-1000z" />
    <glyph glyph-name="sterling" unicode="&#xa3;" horiz-adv-x="714" 
d="M56 351v-150h85v-121h-103v-149h500q59 0 101.5 42.5t42.5 102.5v107h-150v-102h-240v120h165v150h-165v168h122v-102h150v107q0 60 -42.5 102.5t-101.5 42.5h-134q-60 0 -102.5 -42.5t-42.5 -102.5v-173h-85zM714 -200h-714v1000h714v-1000z" />
    <glyph glyph-name="currency" unicode="&#xa4;" horiz-adv-x="714" 
d="M99 404l-50 -87h78v-35h-28l-50 -87h78v-119q0 -60 42.5 -102.5t102.5 -42.5h266q59 0 101.5 42.5t42.5 102.5v95h-150v-90h-254v114h245l50 87h-295v35h305l50 87h-355v115h254v-88h150v93q0 60 -42.5 102.5t-101.5 42.5h-266q-60 0 -102.5 -42.5t-42.5 -102.5v-120h-28
zM714 -200h-714v1000h714v-1000z" />
    <glyph glyph-name="yen" unicode="&#xa5;" horiz-adv-x="835" 
d="M68 194v-118h274v-145h150v145h275v118h-275v58h275v118h-190l244 299h-193l-211 -259l-210 259h-193l243 -299h-189v-118h274v-58h-274zM835 -200h-835v1000h835v-1000z" />
    <glyph glyph-name="section" unicode="&#xa7;" horiz-adv-x="2170" 
d="M27 750h128v-750h-128v750zM2020 750h122v-750h-122v750zM1249 468q15 40 40.5 74t60 58.5t76 38t86.5 13.5t86.5 -13.5t76 -38t60 -58.5t40.5 -74h123q-12 50 -36.5 94.5t-59 81t-77 63.5t-91.5 43h-244q-49 -16 -91.5 -43t-77 -63.5t-59 -81t-36.5 -94.5h123zM1775 276
q-15 -40 -40.5 -74t-60 -58.5t-76 -38t-86.5 -13.5t-86.5 13.5t-76 38t-60 58.5t-40.5 74h-123q24 -96 89.5 -168.5t156.5 -107.5h281q91 35 156 107.5t89 168.5h-123zM923 276q-15 -40 -41 -74t-60.5 -58.5t-76 -38t-86.5 -13.5t-86 13.5t-75.5 38t-60.5 58.5t-41 74h-122
q12 -48 34.5 -90.5t54 -78t71.5 -63t85 -44.5h281q45 17 85 44.5t71.5 63t54 78t34.5 90.5h-122zM397 468q15 40 40.5 74t60 58.5t75.5 38t86 13.5t86.5 -13.5t76 -38t60 -58.5t40.5 -74h123q-12 50 -36.5 94.5t-59 81t-77 63.5t-90.5 43h-245q-48 -16 -90.5 -43t-77 -63.5
t-59 -81t-36.5 -94.5h123zM274 448h95v-30h-56v-33h50v-32h-51v-58h-38v153zM1006 448h44l71 -102v102h38v-153h-35l-81 104v-104h-37v153zM1457 448h115v-38h-32v-115h-51v116h-32v37zM662 456q-14 0 -29.5 -4t-28.5 -14t-22 -28t-9 -46t12.5 -44t27.5 -24q18 -10 41 -12
q24 2 43 12q17 8 30.5 25t13.5 49t-12.5 49t-27.5 25q-18 10 -39 12zM655 322q-12 2 -22 7q-8 5 -14.5 13.5t-6.5 24.5q0 15 4.5 25t11.5 16t15.5 8t15.5 2q11 -1 21 -6q8 -5 15 -15t7 -27q0 -18 -7.5 -27.5t-16.5 -14.5q-11 -5 -23 -6zM1790 333q8 -4 18.5 -7t23.5 -3
q10 0 17.5 3t7.5 12q0 10 -11.5 14t-25 8.5t-24.5 13.5t-11 30q0 13 6 22t15.5 14.5t21.5 7.5t23 2q24 0 39 -6l-3 -31q-14 7 -33 7q-8 0 -17.5 -2t-9.5 -12q0 -9 11 -12.5t24.5 -8t24.5 -13t11 -29.5q0 -29 -20 -39t-46 -10q-11 0 -23 1t-23 5z" />
    <glyph glyph-name="florin" unicode="&#x192;" horiz-adv-x="916" 
d="M500 449h21q0 -11 -1 -16q10 2 18 2q26 0 48.5 -11.5t25.5 -33.5q22 9 57 9q39 0 65.5 -18.5t26.5 -52.5q0 -16 -10 -33q-4 -5 -10 -5q-12 0 -12 10q0 4 3 7q7 12 7 21q0 21 -17 34.5t-42 13.5q-49 0 -81.5 -23.5t-32.5 -46.5q0 -34 46 -34q16 0 33 5q1 1 4 1
q11 0 11 -12q-3 -37 -37 -63q-33 -25 -75 -25q-56 0 -90 39q-34 -39 -90 -39q-42 0 -75 25q-34 26 -37 63q0 12 10 12q3 0 4 -1q18 -5 34 -5q48 0 48 34q0 23 -34 46.5t-84 23.5q-24 0 -40.5 -13.5t-16.5 -34.5q0 -9 7 -21q3 -3 3 -7q0 -10 -12 -10q-6 0 -10 5
q-10 17 -10 33q0 34 26.5 52.5t65.5 18.5q35 0 57 -9q3 21 25.5 33t47.5 12q7 0 19 -2q-1 6 -1 19q0 31 6 49q5 19 13 19t13 -19q4 -16 4 -27l-20 -25h21q0 -12 -2 -30q19 -14 19 -35q0 -29 -33 -43q-33 -17 -33 -28q0 -19 24 -28t51 -9t50.5 9t23.5 28q0 14 -32 28
q-33 14 -33 43q0 21 19 35q-2 9 -2 33q0 34 5 49q5 19 13 19t13 -19q4 -15 5 -28zM539 421q-26 0 -42 -13q-16 -10 -16 -24t16 -24q15 -12 42 -12t43 12q16 11 16 24t-16 24q-18 13 -43 13zM377 421q-25 0 -43 -13q-16 -10 -16 -24t16 -24q17 -12 43 -12t42 12q16 10 16 24
t-16 24q-18 13 -42 13zM534 276q-27 -23 -76 -23t-76 23q-34 -26 -78 -26q-7 0 -23 2q10 -25 34.5 -38.5t52.5 -13.5q54 0 80 42q5 5 10 5q7 0 10 -5q25 -42 80 -42q28 0 52.5 14t33.5 38q-14 -2 -22 -2q-44 0 -78 26zM373 586q-135 -30 -135 -120q0 -5 1.5 -16t1.5 -18
q0 -11 -12 -11q-9 0 -10 9q-3 19 -3 36q0 77 55 134q-48 27 -58 74v4q0 10 11 10q9 0 10 -9q9 -34 39.5 -54.5t66.5 -20.5q35 0 64 18t39 50q3 7 11 7q9 0 10 -7q10 -32 39.5 -50t64.5 -18q36 0 66.5 20.5t38.5 54.5q1 9 10 9q11 0 11 -10v-4q-9 -43 -52 -71q57 -59 57 -137
q0 -10 -2 -36q-3 -9 -11 -9q-11 0 -11 14q3 30 3 31q0 96 -117 117q-78 13 -107 59q-27 -43 -81 -56zM794 97q-59 -62 -144 -62q-42 -24 -95 -24h-12q-41 -19 -85 -19t-85 19h-12q-53 0 -96 24q-86 0 -143 62q-98 70 -98 160q0 70 61 129q-28 53 -28 109q0 122 119 210
q117 86 282 86q164 0 282 -86q119 -88 119 -210q0 -56 -28 -109q61 -59 61 -129q0 -90 -98 -160zM687 62q54 11 90.5 50.5t36.5 94.5q0 48 -28 83q-3 3 -3 7t3.5 7.5t7.5 3.5q5 0 10 -5q32 -41 32 -96q0 -28 -7 -49q41 46 41 99q0 62 -60 118q-4 4 -4 8q0 2 2 6
q29 49 29 106q0 113 -110 192q-112 83 -269 83t-269 -82q-110 -81 -110 -193q0 -57 29 -106q1 -1 1 -5q0 -6 -3 -9q-60 -56 -60 -118q0 -53 41 -99q-7 21 -7 49q0 55 32 96q5 5 10 5q4 0 7.5 -3.5t3.5 -7.5t-3 -7q-28 -35 -28 -83q0 -55 36.5 -94.5t90.5 -50.5
q-55 50 -55 120q0 56 37 101q5 5 9 5q11 0 11 -11q0 -3 -3 -8q-32 -38 -32 -87q0 -57 41 -97.5t98 -49.5q-64 51 -64 127q0 13 11 13q12 0 12 -13q0 -63 49.5 -105.5t114.5 -42.5t114.5 42.5t49.5 105.5q0 13 12 13q11 0 11 -13q0 -76 -64 -127q57 9 98 49.5t41 97.5
q0 49 -32 87q-3 5 -3 8q0 11 11 11q4 0 9 -5q37 -47 37 -101q0 -70 -55 -120z" />
    <glyph glyph-name="bullet" unicode="&#x2022;" horiz-adv-x="497" 
d="M497 800v-1000h-497v1000h497zM33 300q0 -89 63.5 -152.5t152.5 -63.5t152 63.5t63 152.5t-63 152.5t-152 63.5t-152.5 -63.5t-63.5 -152.5z" />
    <glyph glyph-name="Euro" unicode="&#x20ac;" horiz-adv-x="714" 
d="M99 404l-50 -87h78v-35h-28l-50 -87h78v-119q0 -60 42.5 -102.5t102.5 -42.5h266q59 0 101.5 42.5t42.5 102.5v95h-150v-90h-254v114h245l50 87h-295v35h305l50 87h-355v115h254v-88h150v93q0 60 -42.5 102.5t-101.5 42.5h-266q-60 0 -102.5 -42.5t-42.5 -102.5v-120h-28
zM714 -200h-714v1000h714v-1000z" />
  </font>
</defs>
</svg>
